<?xml version="1.0" encoding="UTF-8"?>
<svg width="21px" height="24px" viewBox="0 0 21 24" version="1.1" xmlns="http://www.w3.org/2000/svg" xmlns:xlink="http://www.w3.org/1999/xlink">
    <!-- Generator: Sketch 46.2 (44496) - http://www.bohemiancoding.com/sketch -->
    <title>markerA-icon</title>
    <desc>Created with Sketch.</desc>
    <defs>
        <rect id="path-1" x="4.76174703" y="-1.24344979e-13" width="7.09500274" height="5.57942076" rx="2.78971038"></rect>
    </defs>
    <g id="首页-客户档案-路线" stroke="none" stroke-width="1" fill="none" fill-rule="evenodd">
        <g id="等级" transform="translate(-17.000000, -26.000000)">
            <g id="机构A-icon" transform="translate(17.000000, 26.000000)">
                <path d="M5.71558551,19.6384137 C7.10089471,20.3328816 9.26734865,23.9118033 10.3171186,23.9118033 C11.3668885,23.9118033 13.8544088,20.248224 15.3411249,19.4141638 C18.4989688,17.642587 20.6342371,14.252623 20.6342371,10.3617814 C20.6342371,4.63912756 16.0151058,0 10.3171186,0 C4.61913132,0 0,4.63912756 0,10.3617814 C0,14.4237376 2.32721131,17.9397914 5.71558551,19.6384137 Z" id="Oval-110" fill="#4084F6"></path>
                <g id="Rectangle-71-+-Rectangle-71" transform="translate(10.898046, 10.074303) rotate(314.000000) translate(-10.898046, -10.074303) translate(4.898046, 7.074303)">
                    <rect id="Rectangle-71" stroke="#FEFEFE" stroke-width="1.5" x="0.75" y="0.75" width="10.4043676" height="4.07942076" rx="2.03971038"></rect>
                    <g id="Rectangle-71">
                        <use fill="#FEFEFE" fill-rule="evenodd" xlink:href="#path-1"></use>
                        <rect stroke="#FFFFFF" stroke-width="0.9" x="5.21174703" y="0.45" width="6.19500274" height="4.67942076" rx="2.33971038"></rect>
                    </g>
                </g>
            </g>
        </g>
    </g>
</svg>
