<?xml version="1.0" encoding="UTF-8"?>
<svg width="20px" height="24px" viewBox="0 0 20 24" version="1.1" xmlns="http://www.w3.org/2000/svg" xmlns:xlink="http://www.w3.org/1999/xlink">
    <!-- Generator: Sketch 46.2 (44496) - http://www.bohemiancoding.com/sketch -->
    <title>markerC-icon</title>
    <desc>Created with Sketch.</desc>
    <defs>
        <rect id="path-1" x="4.5154251" y="-1.24344979e-13" width="6.72798308" height="5.55534118" rx="2.77767059"></rect>
    </defs>
    <g id="首页-客户档案-路线" stroke="none" stroke-width="1" fill="none" fill-rule="evenodd">
        <g id="等级" transform="translate(-130.000000, -26.000000)">
            <g id="机构C-icon" transform="translate(130.000000, 26.000000)">
                <path d="M5.41992217,19.5536586 C6.73357027,20.2451293 8.78795502,23.8086051 9.78342105,23.8086051 C10.7788871,23.8086051 13.1377297,20.160837 14.547539,19.3303765 C17.5420298,17.5664454 19.5668421,14.1911118 19.5668421,10.3170622 C19.5668421,4.61910608 15.1866553,0 9.78342105,0 C4.3801868,0 0,4.61910608 0,10.3170622 C0,14.3614878 2.20682625,17.8623671 5.41992217,19.5536586 Z" id="Oval-110" fill="#28DEC3"></path>
                <g id="Rectangle-71-+-Rectangle-71" transform="translate(10.561850, 9.810267) rotate(314.000000) translate(-10.561850, -9.810267) translate(4.561850, 6.810267)">
                    <rect id="Rectangle-71" stroke="#FEFEFE" stroke-width="1.5" x="0.75" y="0.75" width="9.78856275" height="4.05534118" rx="2.02767059"></rect>
                    <g id="Rectangle-71">
                        <use fill="#FEFEFE" fill-rule="evenodd" xlink:href="#path-1"></use>
                        <rect stroke="#FFFFFF" stroke-width="0.9" x="4.9654251" y="0.45" width="5.82798308" height="4.65534118" rx="2.32767059"></rect>
                    </g>
                </g>
            </g>
        </g>
    </g>
</svg>
