<?xml version="1.0" encoding="UTF-8"?>
<svg width="20px" height="24px" viewBox="0 0 20 24" version="1.1" xmlns="http://www.w3.org/2000/svg" xmlns:xlink="http://www.w3.org/1999/xlink">
    <!-- Generator: Sketch 46.2 (44496) - http://www.bohemiancoding.com/sketch -->
    <title>markerB-icon</title>
    <desc>Created with Sketch.</desc>
    <defs>
        <rect id="path-1" x="4.58150701" y="-1.24344979e-13" width="6.82644512" height="5.44227499" rx="2.7211375"></rect>
    </defs>
    <g id="首页-客户档案-路线" stroke="none" stroke-width="1" fill="none" fill-rule="evenodd">
        <g id="等级" transform="translate(-75.000000, -26.000000)">
            <g id="机构B-icon" transform="translate(75.000000, 26.000000)">
                <path d="M5.49924112,19.1556888 C6.83211407,19.8330862 8.91656414,23.3240357 9.92659852,23.3240357 C10.9366329,23.3240357 13.3299964,19.7505096 14.7604379,18.9369511 C17.7987522,17.2089208 19.853197,13.9022843 19.853197,10.1070821 C19.853197,4.5250948 15.4089075,0 9.92659852,0 C4.44428954,0 0,4.5250948 0,10.1070821 C0,14.0691928 2.2391225,17.4988197 5.49924112,19.1556888 Z" id="Oval-110" fill="#12B5F6"></path>
                <g id="Rectangle-71-+-Rectangle-71" transform="translate(10.696296, 9.711093) rotate(314.000000) translate(-10.696296, -9.711093) translate(4.696296, 6.711093)">
                    <rect id="Rectangle-71" stroke="#FEFEFE" stroke-width="1.5" x="0.75" y="0.75" width="9.95376752" height="3.94227499" rx="1.9711375"></rect>
                    <g id="Rectangle-71">
                        <use fill="#FEFEFE" fill-rule="evenodd" xlink:href="#path-1"></use>
                        <rect stroke="#FFFFFF" stroke-width="0.9" x="5.03150701" y="0.45" width="5.92644512" height="4.54227499" rx="2.2711375"></rect>
                    </g>
                </g>
            </g>
        </g>
    </g>
</svg>
